<?xml version="1.0" encoding="utf-8"?>
<!-- Generator: Adobe Illustrator 26.2.1, SVG Export Plug-In . SVG Version: 6.00 Build 0)  -->
<svg version="1.1" id="Layer_1" xmlns="http://www.w3.org/2000/svg" xmlns:xlink="http://www.w3.org/1999/xlink" x="0px" y="0px"
	 viewBox="0 0 925 218" style="enable-background:new 0 0 925 218;" xml:space="preserve">
<style type="text/css">
	.st0{fill:#010101;}
	.st1{fill:#656BB2;}
</style>
<path class="st0" d="M80.42,100.19v43.33c0,8.56,6.85,15.49,15.3,15.49h13.87v28.32H80.21c-16.14-1.76-29.44-13.12-34.23-28.32
	c-1.19-3.77-1.85-7.78-1.9-11.94v-46.88H22.57V74.57c3.3-0.86,6.44-2.1,9.39-3.67c4.57-2.43,8.67-5.65,12.12-9.48
	c7.15-7.94,11.5-18.48,11.5-30.07c0-0.45-0.01-0.91-0.02-1.36h24.85v40.91h29.16v29.29L80.42,100.19L80.42,100.19z"/>
<ellipse class="st1" cx="875.37" cy="161.17" rx="27.05" ry="26.99"/>
<path class="st0" d="M131.46,184.87h31.34v-65.68c0-15.13,8.69-25.54,23.5-25.54c14.27,0,21.57,9.02,21.57,23.83v67.4h31.34v-74.05
	c0-26.62-14.6-43.14-40.14-43.14c-17.49,0-30.05,8.16-36.17,22.65h-0.64V30h-30.8V184.87z"/>
<path class="st0" d="M259.27,184.87h31.34v-64.29c0-16.21,9.01-25.65,24.47-25.65c4.51,0,8.8,0.75,11.38,1.82V69.17
	c-2.15-0.64-5.26-1.18-8.91-1.18c-13.52,0-23.29,7.94-27.37,22.54h-0.64V69.82h-30.26V184.87z"/>
<path class="st0" d="M411.66,149.67c-2.9,8.8-11.7,14.49-23.18,14.49c-15.99,0-26.4-11.27-26.4-27.69v-1.93h79.31v-9.55
	c0-34.99-21.14-57.63-54.62-57.63c-34.02,0-55.48,23.83-55.48,60.53c0,36.81,21.25,59.46,56.66,59.46
	c28.44,0,49.04-15.13,52.48-37.67H411.66z M387.09,90.53c13.95,0,23.5,10.09,24.15,24.79H362.4
	C363.48,100.94,373.35,90.53,387.09,90.53z"/>
<path class="st0" d="M491.72,186.69c14.38,0,28.65-7.19,35.09-19.43h0.64v17.6h30.26v-79.1c0-23.18-19.21-38.42-48.72-38.42
	c-30.48,0-49.47,15.35-50.65,37.67H487c1.5-8.48,8.91-14.27,20.61-14.27c11.8,0,19.32,6.22,19.32,16.96v7.62l-28.98,1.72
	c-28.65,1.72-44.75,13.84-44.75,34.77C453.19,172.53,469.83,186.69,491.72,186.69z M502.02,164.05c-10.62,0-17.71-5.37-17.71-13.95
	c0-8.16,6.65-13.42,18.35-14.27l24.25-1.5v8.37C526.92,155.14,515.65,164.05,502.02,164.05z"/>
<path class="st0" d="M631.34,93.11c15.56,0,25.54,13.31,25.54,34.24c0,21.04-9.98,34.13-25.54,34.13
	c-15.78,0-25.43-12.99-25.43-34.13C605.91,106.31,615.57,93.11,631.34,93.11z M620.72,186.69c16.96,0,30.26-8.91,35.84-21.57h0.54
	v19.75h30.91V30h-31.34v59.56h-0.64c-5.58-12.77-18.46-21.57-35.09-21.57c-28.87,0-47.11,22.65-47.11,59.14
	C573.82,163.94,591.96,186.69,620.72,186.69z"/>
<path class="st0" d="M761.73,163.4c-15.45,0-25.22-12.99-25.22-36.06c0-22.86,9.98-36.06,25.22-36.06
	c15.24,0,25.11,13.2,25.11,36.06C786.84,150.42,777.08,163.4,761.73,163.4z M761.73,187.34c34.77,0,56.99-22.22,56.99-60.1
	c0-37.35-22.54-59.89-56.99-59.89c-34.45,0-56.99,22.65-56.99,59.89C704.75,165.01,726.96,187.34,761.73,187.34z"/>
</svg>
