<?xml version="1.0" encoding="utf-8"?>
<!-- Generator: Adobe Illustrator 26.3.1, SVG Export Plug-In . SVG Version: 6.00 Build 0)  -->
<svg version="1.1" id="Layer_1" xmlns="http://www.w3.org/2000/svg" xmlns:xlink="http://www.w3.org/1999/xlink" x="0px" y="0px"
	 viewBox="0 0 958 195" style="enable-background:new 0 0 958 195;" xml:space="preserve">
<style type="text/css">
	.st0{fill:#FFFFFF;}
	.st1{fill:#696DEC;}
</style>
<path class="st0" d="M82.36,82.9v45.21c0,8.93,7.15,16.16,15.96,16.16h14.47v29.55H82.14c-16.84-1.83-30.72-13.68-35.71-29.55
	c-1.24-3.94-1.93-8.12-1.98-12.46V82.9H22V56.17c3.44-0.9,6.72-2.19,9.8-3.83c4.77-2.53,9.05-5.89,12.65-9.89
	c7.46-8.28,12-19.29,12-31.37c0-0.47-0.01-0.95-0.02-1.42h25.93v42.68h30.43V82.9L82.36,82.9L82.36,82.9z"/>
<path class="st1" d="M911.78,174.69c15.59,0,28.22-12.61,28.22-28.16c0-15.55-12.64-28.16-28.22-28.16
	c-15.59,0-28.22,12.61-28.22,28.16C883.55,162.08,896.19,174.69,911.78,174.69"/>
<path class="st0" d="M135.61,171.25h32.7v-68.53c0-15.79,9.07-26.65,24.52-26.65c14.89,0,22.51,9.41,22.51,24.86v70.32h32.7V93.98
	c0-27.77-15.23-45.01-41.88-45.01c-18.25,0-31.35,8.51-37.73,23.63h-0.67V9.66h-32.14V171.25z"/>
<path class="st0" d="M268.97,171.25h32.7v-67.07c0-16.91,9.41-26.76,25.53-26.76c4.7,0,9.18,0.78,11.87,1.9V50.53
	c-2.24-0.67-5.49-1.23-9.29-1.23c-14.11,0-24.3,8.29-28.55,23.52h-0.67V51.21h-31.58V171.25z"/>
<path class="st0" d="M427.97,134.52c-3.02,9.18-12.2,15.12-24.19,15.12c-16.68,0-27.54-11.76-27.54-28.89v-2.02h82.75v-9.97
	c0-36.5-22.06-60.13-56.99-60.13c-35.5,0-57.89,24.86-57.89,63.15c0,38.41,22.17,62.04,59.12,62.04c29.67,0,51.17-15.79,54.75-39.3
	H427.97z M402.32,72.82c14.56,0,24.52,10.53,25.19,25.87h-50.95C377.69,83.68,387.99,72.82,402.32,72.82"/>
<path class="st0" d="M511.5,173.15c15,0,29.9-7.5,36.61-20.27h0.67v18.36h31.58V88.72c0-24.19-20.04-40.09-50.83-40.09
	c-31.8,0-51.62,16.01-52.85,39.3h29.9c1.57-8.85,9.29-14.89,21.5-14.89c12.32,0,20.15,6.49,20.15,17.69v7.95l-30.23,1.79
	c-29.9,1.79-46.69,14.45-46.69,36.28C471.3,158.37,488.65,173.15,511.5,173.15 M522.24,149.52c-11.09,0-18.48-5.6-18.48-14.56
	c0-8.51,6.94-14,19.15-14.89l25.31-1.57v8.73C548.22,140.23,536.47,149.52,522.24,149.52"/>
<path class="st0" d="M657.17,75.51c16.24,0,26.65,13.89,26.65,35.72c0,21.95-10.41,35.61-26.65,35.61
	c-16.46,0-26.54-13.55-26.54-35.61C630.63,89.28,640.71,75.51,657.17,75.51 M646.08,173.15c17.69,0,31.58-9.29,37.4-22.51h0.56v20.6
	h32.25V9.66h-32.7v62.15h-0.67c-5.82-13.33-19.26-22.51-36.61-22.51c-30.12,0-49.15,23.63-49.15,61.7
	C597.15,149.41,616.08,173.15,646.08,173.15"/>
<path class="st0" d="M793.21,148.85c-16.12,0-26.31-13.55-26.31-37.62c0-23.85,10.41-37.62,26.31-37.62s26.2,13.77,26.2,37.62
	C819.42,135.3,809.23,148.85,793.21,148.85 M793.21,173.82c36.28,0,59.46-23.18,59.46-62.71c0-38.97-23.51-62.48-59.46-62.48
	s-59.46,23.63-59.46,62.48C733.76,150.53,756.94,173.82,793.21,173.82"/>
</svg>
